<?xml version="1.0" encoding="UTF-8"?>
<svg version="1.1" xmlns="http://www.w3.org/2000/svg" width="1024" height="1024">
<path d="M0 0 C337.92 0 675.84 0 1024 0 C1024 337.92 1024 675.84 1024 1024 C686.08 1024 348.16 1024 0 1024 C0 686.08 0 348.16 0 0 Z " fill="#F6C1D7" transform="translate(0,0)"/>
<path d="M0 0 C2.40618367 0.02371226 4.81125688 0.02050854 7.2175293 0.01391602 C21.63957815 0.03804942 35.75831835 1.18287947 49.71557617 5.02368164 C51.15513672 5.40907104 51.15513672 5.40907104 52.6237793 5.80224609 C64.53425086 9.08352205 76.01381197 13.42747966 87.34057617 18.33618164 C89.48514893 19.23502854 91.63091287 20.13104072 93.77807617 21.02368164 C95.35395508 21.67916992 95.35395508 21.67916992 96.96166992 22.34790039 C97.74670898 22.6740332 98.53174805 23.00016602 99.34057617 23.33618164 C99.34057617 23.99618164 99.34057617 24.65618164 99.34057617 25.33618164 C100.04182617 25.42899414 100.74307617 25.52180664 101.46557617 25.61743164 C132.97501908 33.49479237 164.73062921 72.27122389 180.71557617 98.77368164 C181.15772461 99.54325195 181.59987305 100.31282227 182.05541992 101.10571289 C182.92990527 102.6234367 183.84058456 104.12074764 184.78198242 105.59790039 C188.83391366 111.99847062 191.79165755 118.69282132 194.74291992 125.64477539 C195.89255554 128.34248842 197.13102722 130.94325005 198.52807617 133.52368164 C200.9344118 138.23481975 202.2952664 143.25595637 203.74584961 148.32641602 C204.38738952 150.49437847 205.08439982 152.64002529 205.78588867 154.78930664 C216.08443874 187.22973934 220.93583071 228.66342937 205.34057617 260.33618164 C195.86077266 278.08147098 181.11071323 290.32598933 161.92016602 296.57397461 C156.21628467 298.25933497 150.43968927 299.65505379 144.65307617 301.02368164 C143.4490918 301.30937012 142.24510742 301.59505859 141.00463867 301.8894043 C124.53857962 305.62314006 107.85152816 307.67808261 91.05322266 309.21655273 C88.43371666 309.45835329 85.8159721 309.71510495 83.19799805 309.97290039 C57.3358318 312.43721048 31.36111541 312.52482083 5.40429688 312.52148438 C2.24570981 312.52140326 -0.91273173 312.52834849 -4.07128906 312.54199219 C-150.48456378 313.16335216 -150.48456378 313.16335216 -185.50708008 279.64086914 C-207.69999557 255.87713023 -208.78819046 226.53639681 -207.75842285 195.47174072 C-207.34664724 186.58911617 -205.66630823 177.9767364 -203.65942383 169.33618164 C-203.28938232 167.69963623 -203.28938232 167.69963623 -202.91186523 166.0300293 C-199.43390093 150.92042012 -195.08135195 136.45944285 -188.65942383 122.33618164 C-188.3386084 121.62961426 -188.01779297 120.92304688 -187.68725586 120.19506836 C-182.85407794 109.73095587 -177.08250016 99.89879914 -170.65942383 90.33618164 C-170.23773926 89.70276855 -169.81605469 89.06935547 -169.3815918 88.41674805 C-153.74534038 65.30306226 -132.11241009 47.09121724 -108.65942383 32.33618164 C-107.89903809 31.85745605 -107.13865234 31.37873047 -106.35522461 30.88549805 C-100.43141681 27.23855565 -94.38416905 24.16866603 -88.03442383 21.33618164 C-87.06859375 20.90394287 -86.10276367 20.4717041 -85.10766602 20.02636719 C-72.85856441 14.59644744 -60.70696865 10.20807874 -47.78442383 6.64868164 C-46.75736328 6.3629126 -45.73030273 6.07714355 -44.67211914 5.78271484 C-29.81547895 1.82751102 -15.36419296 -0.16100436 0 0 Z " fill="#FCFDFD" transform="translate(506.659423828125,358.663818359375)"/>
<path d="M0 0 C0.96574951 -0.01053406 1.93149902 -0.02106812 2.92651367 -0.03192139 C35.28490559 -0.30452731 68.03896422 8.05942074 97.12109375 22.17578125 C99.1136007 23.13388033 101.13843724 24.02568547 103.1796875 24.875 C126.11654071 34.61667754 147.84043191 50.42249917 164.875 68.5 C167.08873867 70.73374233 169.30799305 72.9564016 171.578125 75.1328125 C198.16098066 100.77587023 217.50265468 137.4551311 227.13818359 172.84814453 C227.68277174 174.80815662 228.25197168 176.76136834 228.83447266 178.71044922 C238.75368752 212.13114819 242.14639052 251.79721429 231.875 285.5 C231.54604736 286.62535156 231.54604736 286.62535156 231.21044922 287.7734375 C224.91035021 308.68882238 211.1960882 326.69307649 192.875 338.5 C192.07707031 339.02980469 191.27914063 339.55960938 190.45703125 340.10546875 C176.98401498 348.65522949 162.20969671 352.7246221 146.875 356.5 C146.10091797 356.69335938 145.32683594 356.88671875 144.52929688 357.0859375 C123.59318959 362.21314745 101.85760048 364.11069318 80.4375 366.1875 C78.63116089 366.36647827 78.63116089 366.36647827 76.78833008 366.54907227 C52.32190435 368.80653219 27.77091048 368.68794172 3.22460938 368.68530273 C-0.66085485 368.68522168 -4.54620065 368.69214671 -8.43164062 368.70581055 C-38.51525615 368.80979886 -68.28161061 368.0746038 -98.1875 364.5 C-99.64900653 364.33261574 -101.11059612 364.16595516 -102.57226562 364 C-106.75910818 363.52058295 -110.94263722 363.01694976 -115.125 362.5 C-117.08385132 362.25793823 -117.08385132 362.25793823 -119.08227539 362.01098633 C-153.9129324 357.54369658 -191.05367454 350.32783621 -215.125 322.5 C-217.3125 319.5 -217.3125 319.5 -219.125 316.5 C-219.88683594 315.49839844 -219.88683594 315.49839844 -220.6640625 314.4765625 C-243.7267842 283.89559672 -242.74339231 241.34977983 -238.07421875 205.26953125 C-237.17547403 199.23341593 -235.68053171 193.39478521 -234.125 187.5 C-233.80073136 186.15490259 -233.48095254 184.80870541 -233.16796875 183.4609375 C-225.36622829 150.75775146 -211.50515207 120.294441 -191.125 93.5 C-190.650625 92.83355469 -190.17625 92.16710937 -189.6875 91.48046875 C-171.34045084 65.88842006 -144.85788154 44.93544418 -117.125 30.5 C-116.14732666 29.98445557 -116.14732666 29.98445557 -115.14990234 29.45849609 C-100.38991798 21.70941339 -85.09374717 15.32130518 -69.125 10.5 C-68.33029297 10.25894531 -67.53558594 10.01789063 -66.71679688 9.76953125 C-60.22894839 7.8315386 -53.70172745 6.10899564 -47.125 4.5 C-46.27019043 4.2839209 -45.41538086 4.0678418 -44.53466797 3.84521484 C-29.81570003 0.2808408 -15.06412011 0.08320545 0 0 Z M-83.125 45.5 C-85.31182385 46.39748262 -87.49928327 47.29341881 -89.6875 48.1875 C-107.63962511 55.88954077 -124.38475418 66.71904497 -139.125 79.5 C-139.90746094 80.17160156 -140.68992187 80.84320313 -141.49609375 81.53515625 C-144.08601443 83.81037393 -146.61095223 86.14109684 -149.125 88.5 C-149.68203613 89.01771973 -150.23907227 89.53543945 -150.81298828 90.06884766 C-165.89689597 104.19556195 -177.23703442 120.41804028 -187.125 138.5 C-187.66398926 139.47718994 -187.66398926 139.47718994 -188.21386719 140.47412109 C-197.9451096 158.3266907 -203.61441714 177.75337643 -208.125 197.5 C-208.33817871 198.4163623 -208.55135742 199.33272461 -208.77099609 200.27685547 C-211.72491234 213.47226403 -212.50989407 226.46567767 -212.5625 239.9375 C-212.56876404 240.68550873 -212.57502808 241.43351746 -212.58148193 242.20419312 C-212.69942488 264.43521688 -208.49798402 284.9363328 -194.125 302.5 C-193.56554687 303.20769531 -193.00609375 303.91539062 -192.4296875 304.64453125 C-188.24860858 309.72989003 -183.82280056 313.22824945 -178.125 316.5 C-177.15175781 317.06589844 -176.17851562 317.63179687 -175.17578125 318.21484375 C-158.68665447 327.13263185 -140.35117384 330.37143465 -121.98291016 333.07519531 C-119.37377198 333.46302211 -116.77105728 333.87846924 -114.16796875 334.3046875 C-103.0564477 336.07189397 -91.8914379 337.15081669 -80.6875 338.125 C-79.9793515 338.1875296 -79.271203 338.2500592 -78.54159546 338.31448364 C-55.51680532 340.32469297 -32.53993554 340.66291019 -9.44213867 340.63037109 C-5.39768699 340.62470787 -1.35330156 340.6280517 2.6911478 340.63379669 C29.61819764 340.66651892 56.48968225 340.36290178 83.3125 337.75 C84.21845917 337.66352203 85.12441833 337.57704407 86.05783081 337.48794556 C145.20300482 332.45846305 145.20300482 332.45846305 193.0703125 300.82421875 C211.33119875 277.30641071 211.98647504 246.52625018 208.74267578 218.18701172 C207.00370636 204.51137014 204.19931815 191.57517076 199.875 178.5 C199.42158706 177.06690835 198.96970279 175.63333192 198.51953125 174.19921875 C196.3552041 167.42848874 193.83533564 160.95806553 190.875 154.5 C190.33842773 153.32751709 190.33842773 153.32751709 189.79101562 152.13134766 C188.6833121 149.72853606 187.56212739 147.3324319 186.4375 144.9375 C186.06818359 144.13892578 185.69886719 143.34035156 185.31835938 142.51757812 C179.88302111 130.95924182 172.30565185 120.8352886 164.875 110.5 C164.27816406 109.66210938 163.68132812 108.82421875 163.06640625 107.9609375 C146.18591763 85.24900735 122.77552526 66.72468088 97.875 53.5 C96.885 53.5 95.895 53.5 94.875 53.5 C94.875 52.84 94.875 52.18 94.875 51.5 C82.94347983 46.33386856 82.94347983 46.33386856 70.875 41.5 C69.91207031 41.12230469 68.94914062 40.74460937 67.95703125 40.35546875 C60.59924574 37.58640969 53.14966188 35.35806757 45.5625 33.3125 C44.66313721 33.06258301 43.76377441 32.81266602 42.8371582 32.55517578 C28.20623833 28.72582307 13.29701792 28.08228731 -1.75 28.125 C-2.99523437 28.12731125 -2.99523437 28.12731125 -4.265625 28.12966919 C-31.30173489 28.24856121 -58.5331469 33.96315871 -83.125 45.5 Z " fill="#4E2E37" transform="translate(511.125,330.5)"/>
<path d="M0 0 C3.78716158 1.50362259 7.55245187 3.05487001 11.3125 4.625 C12.38113281 5.07101562 13.44976563 5.51703125 14.55078125 5.9765625 C15.76314453 6.48316406 15.76314453 6.48316406 17 7 C17 7.66 17 8.32 17 9 C17.70125 9.0928125 18.4025 9.185625 19.125 9.28125 C50.63444291 17.15861073 82.39005304 55.93504225 98.375 82.4375 C98.81714844 83.20707031 99.25929688 83.97664063 99.71484375 84.76953125 C100.5893291 86.28725506 101.50000839 87.784566 102.44140625 89.26171875 C106.49333749 95.66228898 109.45108138 102.35663968 112.40234375 109.30859375 C113.55197937 112.00630678 114.79045105 114.60706841 116.1875 117.1875 C118.59383563 121.89863811 119.95469023 126.91977473 121.40527344 131.99023438 C122.04681335 134.15819683 122.74382365 136.30384365 123.4453125 138.453125 C133.74386256 170.8935577 138.59525453 212.32724773 123 244 C113.53878146 261.71050003 98.80739931 273.97778769 79.64990234 280.22021484 C73.5913884 282.00305007 67.45563235 283.47968744 61.3125 284.9375 C60.29978027 285.18031708 60.29978027 285.18031708 59.26660156 285.42803955 C57.32238986 285.88945902 55.37412667 286.33370291 53.42578125 286.77734375 C51.71515503 287.16780884 51.71515503 287.16780884 49.9699707 287.56616211 C47.19098098 287.97210249 45.60658696 287.93999569 43 287 C44.051875 286.566875 45.10375 286.13375 46.1875 285.6875 C49.30039718 284.35966458 52.1035189 282.7531333 55 281 C56.16982422 280.566875 56.16982422 280.566875 57.36328125 280.125 C60.17929108 278.92350247 62.18714859 277.48343636 64.5625 275.5625 C65.30628906 274.96566406 66.05007813 274.36882812 66.81640625 273.75390625 C67.53699219 273.17511719 68.25757813 272.59632813 69 272 C72.74829932 269 72.74829932 269 75 269 C75 268.34 75 267.68 75 267 C76.50390625 265.5546875 76.50390625 265.5546875 78.5625 263.875 C91.60226199 252.69151345 98.62828579 239.25245292 103.40527344 223.01660156 C103.94172962 221.19758346 104.51921916 219.39078883 105.1015625 217.5859375 C110.41209051 196.39000395 107.60645452 171.48515966 103.45751953 150.33935547 C102.91556853 147.56829118 102.4466276 144.78789649 102 142 C101.34 142 100.68 142 100 142 C99.74605469 140.91460938 99.49210938 139.82921875 99.23046875 138.7109375 C98.88319618 137.26553276 98.53551836 135.82022535 98.1875 134.375 C98.02185547 133.66214844 97.85621094 132.94929687 97.68554688 132.21484375 C96.60897631 127.7866856 95.13912904 124.05399455 93 120 C92.48602538 118.53256523 92.00300139 117.05363824 91.5625 115.5625 C90.41503798 111.98863391 88.98396908 108.95335181 87.0390625 105.75390625 C85.90297361 103.83622237 84.91770022 101.87655389 83.9375 99.875 C82.84396925 97.64949406 81.730968 95.55878751 80.4375 93.4375 C79 91 79 91 77.625 87.5625 C76.29807947 84.65348191 75.41386987 83.15408155 73.375 80.875 C71.02872734 78.03477521 70.31746096 76.59789084 70 73 C69.34 73 68.68 73 68 73 C67.566875 72.0925 67.13375 71.185 66.6875 70.25 C65.15019164 67.07225128 65.15019164 67.07225128 63.3125 64.75 C62 63 62 63 62 61 C61.34 61 60.68 61 60 61 C58.7734375 59.34765625 58.7734375 59.34765625 57.375 57.0625 C54.49630164 52.55918969 51.19802428 48.73273364 47.5390625 44.84765625 C46 43 46 43 46 41 C45.34 41 44.68 41 44 41 C39 35.52380952 39 35.52380952 39 33 C38.4225 32.773125 37.845 32.54625 37.25 32.3125 C34.40408619 30.65238361 33.00158079 28.60812043 31 26 C29.38161281 24.28641357 27.70328319 22.6292274 26 21 C25.27683594 20.30519531 24.55367187 19.61039062 23.80859375 18.89453125 C18.91869376 14.32603314 14.0927457 10.64281657 8.2734375 7.34765625 C5.18644039 5.51773528 2.63672657 3.42856395 0 1 C0 0.67 0 0.34 0 0 Z " fill="#F1B9CE" transform="translate(589,375)"/>
<path d="M0 0 C5.55425854 2.65638452 9.07376518 7.24044493 13.046875 11.85546875 C15.09176619 14.10075927 15.98467615 14.91422608 18.98828125 15.16796875 C23.45134312 15.20547347 26.93743705 15.09680669 31 13 C31 12.34 31 11.68 31 11 C33.125 8.6875 33.125 8.6875 36 6 C37.3921875 4.63875 37.3921875 4.63875 38.8125 3.25 C42.58522818 0.58689776 45.38791204 -0.4612088 50 0 C54.82470158 2.31956807 57.57570939 5.24466072 60 10 C60.9194056 16.09106209 59.04472758 20.81862149 56 26 C48.33178451 36.28485774 38.54322607 42.3868279 26 45 C15.40060755 46.4511073 5.65127184 42.94257667 -2.9375 36.75 C-9.81451946 30.94554321 -15.42142059 22.49650436 -16.375 13.4375 C-15.79176134 8.09114558 -14.32870177 5.14751516 -10.25 1.625 C-6.38918695 -0.30540652 -4.26568014 -0.60938288 0 0 Z " fill="#4B2F38" transform="translate(489,532)"/>
<path d="M0 0 C0.94125229 -0.00630432 1.88250458 -0.01260864 2.85227966 -0.019104 C4.36024864 -0.01303131 4.36024864 -0.01303131 5.89868164 -0.00683594 C6.94278702 -0.00874939 7.9868924 -0.01066284 9.06263733 -0.01263428 C11.26734661 -0.01399323 13.47206397 -0.01031703 15.67675781 -0.00195312 C19.043234 0.0087395 22.40917525 -0.00185289 25.77563477 -0.01464844 C27.92081823 -0.01332658 30.06600136 -0.01076365 32.21118164 -0.00683594 C33.71611427 -0.01290863 33.71611427 -0.01290863 35.25144958 -0.019104 C41.00408514 0.01929741 46.25087053 0.07345383 51.01977539 3.70410156 C53.72376282 6.7800661 55.52154476 9.13853118 55.74633789 13.32128906 C55.0595069 17.6483243 53.94434763 19.93760114 51.12133789 23.25878906 C50.46133789 23.25878906 49.80133789 23.25878906 49.12133789 23.25878906 C49.12133789 23.91878906 49.12133789 24.57878906 49.12133789 25.25878906 C43.35553206 27.72182778 37.78695854 27.61575306 31.62524414 27.66503906 C30.51833725 27.67643921 29.41143036 27.68783936 28.27098083 27.69958496 C25.9352498 27.71843353 23.59946619 27.73153245 21.26367188 27.73925781 C17.699008 27.7587063 14.13663468 27.82080736 10.57250977 27.88378906 C8.29843486 27.89684735 6.02434354 27.907349 3.75024414 27.91503906 C2.68963272 27.93973267 1.6290213 27.96442627 0.53627014 27.98986816 C-5.59560024 27.95310624 -9.14896797 27.20649784 -13.65858459 22.93884277 C-16.10312032 19.57270311 -16.33861725 15.44853875 -16.29272461 11.35644531 C-15.51897522 7.43660169 -12.93116243 4.70873509 -9.87866211 2.25878906 C-6.46231915 0.66854832 -3.7581255 0.00726141 0 0 Z " fill="#F1ACCA" transform="translate(374.878662109375,566.7412109375)"/>
<path d="M0 0 C1.01337936 -0.00761353 2.02675873 -0.01522705 3.07084656 -0.02307129 C5.20988509 -0.03385057 7.34897616 -0.03673425 9.48803711 -0.03222656 C12.74097717 -0.03125619 15.99154187 -0.0728641 19.24414062 -0.1171875 C21.3294222 -0.12239662 23.41471192 -0.12508266 25.5 -0.125 C26.46279373 -0.14139526 27.42558746 -0.15779053 28.41755676 -0.17468262 C35.1022545 -0.1071379 40.09073027 1.35501619 45.44921875 5.46875 C47.74705481 8.91550409 47.74676758 10.40203112 47.76171875 14.46875 C47.77847656 15.520625 47.79523438 16.5725 47.8125 17.65625 C47.44921875 20.46875 47.44921875 20.46875 46.0546875 22.34375 C44.44921875 23.46875 44.44921875 23.46875 42.44921875 23.46875 C42.44921875 24.12875 42.44921875 24.78875 42.44921875 25.46875 C39.92782913 26.72944481 38.16667559 26.60937812 35.34448242 26.62988281 C34.27965134 26.63949036 33.21482025 26.6490979 32.11772156 26.65899658 C30.96254532 26.66324646 29.80736908 26.66749634 28.6171875 26.671875 C27.43328934 26.67757507 26.24939117 26.68327515 25.02961731 26.68914795 C22.52032366 26.69860821 20.01101752 26.70513599 17.50170898 26.70898438 C13.66302783 26.71868353 9.82488337 26.7496955 5.98632812 26.78125 C3.55078444 26.78778049 1.11523691 26.79303078 -1.3203125 26.796875 C-2.46941605 26.8092218 -3.61851959 26.8215686 -4.80244446 26.83428955 C-5.87673203 26.83128845 -6.95101959 26.82828735 -8.05786133 26.82519531 C-9.00003006 26.82884094 -9.94219879 26.83248657 -10.91291809 26.83624268 C-14.91017715 26.27936639 -17.56210596 24.49428379 -20.33203125 21.62109375 C-22.65678311 17.51552235 -22.26805182 13.02274148 -21.55078125 8.46875 C-16.08951025 0.75872035 -8.75277595 0.0018196 0 0 Z " fill="#F2ABC9" transform="translate(613.55078125,566.53125)"/>
<path d="M0 0 C6.30676504 3.89989756 9.17990971 8.88118533 11 16 C12.03720123 22.4691417 10.84309383 27.68462234 7 33 C1.02127666 39.73449875 -5.17360622 42.31051517 -13.9375 43.5625 C-20.04943697 43.29357477 -25.6518535 39.54114485 -29.7109375 35.1484375 C-34.83804632 28.18386772 -34.64006333 21.35792845 -34 13 C-32.32262613 6.19434931 -27.79686504 2.55291728 -22 -1 C-15.10826264 -4.88764672 -6.74291249 -3.61915507 0 0 Z " fill="#4A2E36" transform="translate(428,512)"/>
<path d="M0 0 C5.58541918 3.2319513 9.64679399 8.43421298 12.51171875 14.1640625 C12.66148914 16.41061837 12.73322049 18.66270018 12.76171875 20.9140625 C12.7875 22.12578125 12.81328125 23.3375 12.83984375 24.5859375 C12.30530835 30.41491882 10.05356778 34.16747461 5.63671875 37.9140625 C4.97929688 38.48640625 4.321875 39.05875 3.64453125 39.6484375 C-2.51016898 44.02210726 -9.18437811 44.03735527 -16.48828125 43.1640625 C-19.59847278 41.9366127 -21.95610579 40.32644006 -24.48828125 38.1640625 C-25.25140625 37.5659375 -26.01453125 36.9678125 -26.80078125 36.3515625 C-31.67172022 30.03738235 -32.47103726 22.89055805 -31.48828125 15.1640625 C-29.63324825 8.49061046 -25.03216208 4.09145241 -19.48828125 0.1640625 C-13.49576654 -1.8334424 -6.0125935 -2.01992937 0 0 Z " fill="#4B2F36" transform="translate(614.48828125,510.8359375)"/>
<path d="M0 0 C1.02523773 -0.0004985 2.05047546 -0.00099701 3.10678101 -0.00151062 C5.26684515 0.00082331 7.42691235 0.01051147 9.58691406 0.02709961 C12.89412698 0.05075042 16.20053614 0.04764786 19.5078125 0.04101562 C21.60937981 0.0465909 23.71094372 0.05369982 25.8125 0.0625 C26.80110016 0.06158859 27.78970032 0.06067719 28.80825806 0.05973816 C29.72956512 0.06927017 30.65087219 0.07880219 31.60009766 0.08862305 C32.81205307 0.09553413 32.81205307 0.09553413 34.04849243 0.10258484 C36.5020379 0.39006632 38.14512092 1.13852471 40.2734375 2.36328125 C40.2734375 2.69328125 40.2734375 3.02328125 40.2734375 3.36328125 C39.62863937 3.36106064 38.98384125 3.35884003 38.31950378 3.35655212 C31.62015333 3.33446177 24.92081319 3.31935891 18.22143555 3.30834961 C15.71980367 3.30331484 13.21817474 3.29648664 10.71655273 3.2878418 C7.12482984 3.27573887 3.53314578 3.27004443 -0.05859375 3.265625 C-1.18054642 3.26046371 -2.30249908 3.25530243 -3.45845032 3.24998474 C-4.49930283 3.24990921 -5.54015533 3.24983368 -6.61254883 3.24975586 C-7.52966141 3.24753525 -8.44677399 3.24531464 -9.39167786 3.24302673 C-11.88324415 3.26716767 -11.88324415 3.26716767 -14.7265625 4.36328125 C-15.0565625 5.02328125 -15.3865625 5.68328125 -15.7265625 6.36328125 C-16.3865625 6.36328125 -17.0465625 6.36328125 -17.7265625 6.36328125 C-19.84703042 9.89739446 -20.25855539 13.3072196 -20.7265625 17.36328125 C-20.0665625 17.36328125 -19.4065625 17.36328125 -18.7265625 17.36328125 C-18.7265625 18.02328125 -18.7265625 18.68328125 -18.7265625 19.36328125 C-17.7365625 19.69328125 -16.7465625 20.02328125 -15.7265625 20.36328125 C-15.3965625 21.35328125 -15.0665625 22.34328125 -14.7265625 23.36328125 C-8.20530124 24.17807645 -1.79078342 24.5598508 4.77734375 24.6796875 C5.7412352 24.7004686 6.70512665 24.72124969 7.69822693 24.74266052 C10.74406568 24.80747021 13.78998245 24.86671841 16.8359375 24.92578125 C18.91472126 24.96903187 20.99349744 25.01264813 23.07226562 25.05664062 C28.1392452 25.16308013 33.20630238 25.26453578 38.2734375 25.36328125 C38.2734375 25.69328125 38.2734375 26.02328125 38.2734375 26.36328125 C30.95945909 26.43937087 23.64558284 26.49189789 16.33129883 26.52807617 C13.8433043 26.54315886 11.35533633 26.56362779 8.86743164 26.58959961 C5.29046062 26.62600462 1.71384128 26.64301309 -1.86328125 26.65625 C-3.53072639 26.67947578 -3.53072639 26.67947578 -5.2318573 26.70317078 C-6.79290947 26.70351067 -6.79290947 26.70351067 -8.38549805 26.70385742 C-9.75450508 26.71385017 -9.75450508 26.71385017 -11.15116882 26.7240448 C-15.11120755 26.16931888 -17.76473277 24.36096867 -20.5078125 21.515625 C-22.83256436 17.4100536 -22.44383307 12.91727273 -21.7265625 8.36328125 C-16.19731897 0.55729039 -8.84022526 -0.08269372 0 0 Z " fill="#E2B7CA" transform="translate(613.7265625,566.63671875)"/>
<path d="M0 0 C3.78716158 1.50362259 7.55245187 3.05487001 11.3125 4.625 C12.38113281 5.07101562 13.44976563 5.51703125 14.55078125 5.9765625 C15.76314453 6.48316406 15.76314453 6.48316406 17 7 C17 7.66 17 8.32 17 9 C17.68449219 9.08121094 18.36898437 9.16242188 19.07421875 9.24609375 C22.76165528 10.19626097 25.64971542 12.02097016 28.8125 14.0625 C29.7087207 14.62807617 29.7087207 14.62807617 30.62304688 15.20507812 C32.08636577 16.12989566 33.54379523 17.06402065 35 18 C34.01 18.495 34.01 18.495 33 19 C32.34 18.67 31.68 18.34 31 18 C33.475 20.97 33.475 20.97 36 24 C34.21875 24.64453125 34.21875 24.64453125 32 25 C30.28125 24.13671875 30.28125 24.13671875 28.5 22.6875 C27.80777344 22.13578125 27.11554687 21.5840625 26.40234375 21.015625 C24.63725423 19.53467184 22.8806438 18.0435977 21.12890625 16.546875 C20.10740304 15.67634094 19.08525688 14.80656082 18.0625 13.9375 C17.55146729 13.50187744 17.04043457 13.06625488 16.51391602 12.61743164 C12.84549593 9.55021999 9.15405379 7.17342582 4.83984375 5.1328125 C2.61057992 3.76022968 1.44851258 2.15697512 0 0 Z " fill="#E7B0C8" transform="translate(589,375)"/>
<path d="M0 0 C0.66 0.33 1.32 0.66 2 1 C2.45002919 3.51781038 2.79476626 5.96234974 3.0625 8.5 C3.18808995 13.12673931 3.18808995 13.12673931 5 17 C5.12629796 19.38339555 5.18830573 21.73614658 5.203125 24.12109375 C5.20991272 24.84891052 5.21670044 25.57672729 5.22369385 26.32659912 C5.24076117 28.69694211 5.24690039 31.06709944 5.25 33.4375 C5.25233643 34.23467438 5.25467285 35.03184875 5.25708008 35.85317993 C5.27003116 47.48368915 4.75213285 58.64745201 2 70 C1.34 70 0.68 70 0 70 C-0.495 70.99 -0.495 70.99 -1 72 C-0.57566618 68.39316253 -0.1434478 64.81034419 0.48974609 61.23339844 C1.99627369 52.59119529 2.30150385 44.19744717 2.25 35.4375 C2.25773438 34.11814453 2.26546875 32.79878906 2.2734375 31.43945312 C2.25929942 24.30325919 1.82723492 17.55201622 0.44091797 10.54614258 C-0.17714135 6.97707248 -0.13893921 3.61241956 0 0 Z " fill="#E7C4D4" transform="translate(694,528)"/>
<path d="M0 0 C1.41210503 -0.00956978 1.41210503 -0.00956978 2.85273743 -0.01933289 C4.37619026 -0.02100212 4.37619026 -0.02100212 5.93041992 -0.02270508 C6.97735519 -0.02603348 8.02429047 -0.02936188 9.10295105 -0.03279114 C11.31960612 -0.03785645 13.53626883 -0.04019959 15.75292969 -0.04003906 C19.13709164 -0.04222099 22.52092523 -0.0603685 25.9050293 -0.0793457 C28.05932506 -0.08228064 30.21362237 -0.08426477 32.36791992 -0.08520508 C33.37748245 -0.09239059 34.38704498 -0.09957611 35.42720032 -0.10697937 C40.42191463 -0.09081833 44.73313397 -0.00974222 49.34838867 2.14526367 C51.72338867 4.77026367 51.72338867 4.77026367 53.34838867 7.14526367 C52.68838867 7.80526367 52.02838867 8.46526367 51.34838867 9.14526367 C50.97713867 8.52651367 50.60588867 7.90776367 50.22338867 7.27026367 C47.37034089 4.03680952 44.26578045 3.29548923 39.99731445 2.96105957 C37.15399534 2.88076432 34.31782288 2.86812483 31.47338867 2.87963867 C29.90935303 2.87676849 29.90935303 2.87676849 28.3137207 2.87384033 C26.11498777 2.87248278 23.91624671 2.8761491 21.7175293 2.88452148 C18.35992356 2.89522689 15.00285285 2.88461137 11.64526367 2.87182617 C9.5046375 2.87314784 7.36401165 2.87571039 5.22338867 2.87963867 C4.2232373 2.87559021 3.22308594 2.87154175 2.19262695 2.86737061 C-2.82100856 2.90095364 -6.95550075 3.15495081 -11.65161133 5.14526367 C-7.90814137 1.14362338 -5.43866893 0.02503891 0 0 Z " fill="#E2B7CB" transform="translate(374.651611328125,566.854736328125)"/>
<path d="M0 0 C1.65 0 3.3 0 5 0 C1.68235441 3.99818828 -1.71545151 7.74855207 -5.4375 11.375 C-9.73761474 15.60951977 -13.42881841 20.14273372 -17 25 C-18.32 24.67 -19.64 24.34 -21 24 C-21 23.34 -21 22.68 -21 22 C-20.34 22 -19.68 22 -19 22 C-18.71125 21.360625 -18.4225 20.72125 -18.125 20.0625 C-17 18 -17 18 -15 17 C-14.67 16.01 -14.34 15.02 -14 14 C-11.9375 13.3125 -11.9375 13.3125 -10 13 C-10.99 12.01 -11.98 11.02 -13 10 C-12.67 9.34 -12.34 8.68 -12 8 C-11.34 8 -10.68 8 -10 8 C-9.34 7.34 -8.68 6.68 -8 6 C-7.34 5.34 -6.68 4.68 -6 4 C-5.01 4 -4.02 4 -3 4 C-2.67 3.34 -2.34 2.68 -2 2 C-1.34 1.67 -0.68 1.34 0 1 C0 0.67 0 0.34 0 0 Z " fill="#50393D" transform="translate(358,418)"/>
<path d="M0 0 C3 1 3 1 3 1 Z M-3 1 C2.75 1.75 2.75 1.75 5 4 C0.87648994 5.13050868 -3.2490625 6.25338592 -7.375 7.375 C-8.53128906 7.69210937 -9.68757812 8.00921875 -10.87890625 8.3359375 C-30.09656086 13.54750485 -30.09656086 13.54750485 -35 12 C-33.948125 11.566875 -32.89625 11.13375 -31.8125 10.6875 C-28.69960282 9.35966458 -25.8964811 7.7531333 -23 6 C-18.61834982 3.4961999 -15.18903454 4.21575223 -10.3828125 4.83984375 C-7.47998328 5.03495194 -5.52247703 4.42940365 -3 3 C-3 2.34 -3 1.68 -3 1 Z " fill="#E7B9CA" transform="translate(667,650)"/>
<path d="M0 0 C0.66 0.99 1.32 1.98 2 3 C1.625 4.8125 1.625 4.8125 1 7 C0.96154557 8.99963028 0.95455719 11.00051633 1 13 C1.99 12.67 2.98 12.34 4 12 C4.12375 12.804375 4.2475 13.60875 4.375 14.4375 C4.684375 15.7059375 4.684375 15.7059375 5 17 C5.66 17.33 6.32 17.66 7 18 C7 18.66 7 19.32 7 20 C23.5 20 40 20 57 20 C57 20.33 57 20.66 57 21 C49.86526972 21.15249066 42.73096162 21.25735834 35.5949707 21.32958984 C33.1690297 21.35970966 30.74319712 21.40061464 28.31762695 21.45263672 C24.82476008 21.52565833 21.33333628 21.55950597 17.83984375 21.5859375 C16.22069313 21.63238907 16.22069313 21.63238907 14.5688324 21.67977905 C8.375504 21.68252932 4.76382276 21.01036257 0.21266174 16.68252563 C-2.71367618 12.6223344 -2.22774709 7.78268879 -2 3 C-1.34 2.01 -0.68 1.02 0 0 Z " fill="#EED3DE" transform="translate(361,573)"/>
<path d="M0 0 C0.33 0 0.66 0 1 0 C1.20376515 3.66777264 0.84052833 5.83020121 -1 9 C-1.4640625 10.0209375 -1.4640625 10.0209375 -1.9375 11.0625 C-3.068601 13.12509594 -4.19554917 14.49629098 -6 16 C-6.66 16 -7.32 16 -8 16 C-8.226875 16.7425 -8.45375 17.485 -8.6875 18.25 C-10.27039331 21.56653836 -11.91302348 23.04240513 -15 25 C-15.99 24.67 -16.98 24.34 -18 24 C-17.53851562 23.608125 -17.07703125 23.21625 -16.6015625 22.8125 C-10.35061929 17.08040979 -6.31351678 10.43040353 -2.00390625 3.21875 C-1.34261719 2.1565625 -0.68132813 1.094375 0 0 Z " fill="#E7C4D2" transform="translate(687,614)"/>
<path d="M0 0 C1.10886989 3.32660966 1.43514747 5.51882027 1 9 C-0.63790712 10.04644066 -2.31008021 11.0398183 -4 12 C-5.58500988 14.24838462 -6.74592966 16.53830637 -8 19 C-9.32 18.34 -10.64 17.68 -12 17 C-8.31121019 11.02564878 -4.68056077 5.24790147 0 0 Z " fill="#EEEFED" transform="translate(343,440)"/>
<path d="M0 0 C-0.33 1.32 -0.66 2.64 -1 4 C-5.75 5.125 -5.75 5.125 -8 4 C-8.33 5.32 -8.66 6.64 -9 8 C-9.763125 7.9175 -10.52625 7.835 -11.3125 7.75 C-14.11713137 7.69835543 -14.11713137 7.69835543 -15.625 9.875 C-16.07875 10.57625 -16.5325 11.2775 -17 12 C-20 14 -20 14 -22 15 C-22.99 13.68 -23.98 12.36 -25 11 C-22.48043257 9.72660518 -19.95941351 8.45623358 -17.4375 7.1875 C-16.73302734 6.83107422 -16.02855469 6.47464844 -15.30273438 6.10742188 C-3.14392202 0 -3.14392202 0 0 0 Z " fill="#E9EBE7" transform="translate(432,375)"/>
<path d="M0 0 C0.66 0.99 1.32 1.98 2 3 C1.58447266 4.90112305 1.58447266 4.90112305 0.6640625 7.01171875 C0.34179688 7.76904297 0.01953125 8.52636719 -0.3125 9.30664062 C-0.663125 10.09232422 -1.01375 10.87800781 -1.375 11.6875 C-1.71789062 12.48478516 -2.06078125 13.28207031 -2.4140625 14.10351562 C-3.26376335 16.07434954 -4.13031385 18.0379032 -5 20 C-6.0625 18.125 -6.0625 18.125 -7 16 C-6.67 15.34 -6.34 14.68 -6 14 C-6.66 14 -7.32 14 -8 14 C-7.11242821 8.52664062 -4.84955282 5.84955282 -1 2 C-0.67 1.34 -0.34 0.68 0 0 Z " fill="#523A3F" transform="translate(320,471)"/>
<path d="M0 0 C0.99 0.99 1.98 1.98 3 3 C-0.96 8.94 -0.96 8.94 -5 15 C-5.66 14.67 -6.32 14.34 -7 14 C-7.20086443 10.28400809 -7.1519437 9.22791555 -5 6 C-4.34 6 -3.68 6 -3 6 C-2.814375 4.7934375 -2.814375 4.7934375 -2.625 3.5625 C-2.41875 2.716875 -2.2125 1.87125 -2 1 C-1.34 0.67 -0.68 0.34 0 0 Z " fill="#5F323D" transform="translate(731,634)"/>
<path d="M0 0 C0 0.66 0 1.32 0 2 C-0.99 2.33 -1.98 2.66 -3 3 C-3.33 3.66 -3.66 4.32 -4 5 C-4.66 5 -5.32 5 -6 5 C-8.12046792 8.53411321 -8.53199289 11.94393835 -9 16 C-8.34 16 -7.68 16 -7 16 C-7 16.66 -7 17.32 -7 18 C-6.01 18.33 -5.02 18.66 -4 19 C-2.8125 21.5625 -2.8125 21.5625 -2 24 C-4.80972581 23.69895795 -6.05669289 22.95275592 -8.25 21.125 C-10.84193831 16.49653873 -10.92034459 12.18668772 -10 7 C-7.57859922 3.79328005 -4.30200167 0 0 0 Z " fill="#E7BFD2" transform="translate(602,568)"/>
<path d="M0 0 C0.66 0 1.32 0 2 0 C2.05797565 3.93743833 2.09358789 7.87476719 2.125 11.8125 C2.15013672 13.49182617 2.15013672 13.49182617 2.17578125 15.20507812 C2.18222656 16.27822266 2.18867187 17.35136719 2.1953125 18.45703125 C2.20578613 19.44678955 2.21625977 20.43654785 2.22705078 21.45629883 C2 24 2 24 0 27 C-1.06432275 23.80703175 -1.03788336 21.79555059 -0.87890625 18.45703125 C-0.83056641 17.38388672 -0.78222656 16.31074219 -0.73242188 15.20507812 C-0.67634766 14.08552734 -0.62027344 12.96597656 -0.5625 11.8125 C-0.51029297 10.68134766 -0.45808594 9.55019531 -0.40429688 8.38476562 C-0.27456193 5.5895672 -0.13959359 2.7947206 0 0 Z " fill="#D9AABC" transform="translate(719,560)"/>
<path d="M0 0 C3.78716158 1.50362259 7.55245187 3.05487001 11.3125 4.625 C12.38113281 5.07101562 13.44976563 5.51703125 14.55078125 5.9765625 C15.76314453 6.48316406 15.76314453 6.48316406 17 7 C17 7.66 17 8.32 17 9 C19.475 9.495 19.475 9.495 22 10 C22 10.99 22 11.98 22 13 C21.34 12.67 20.68 12.34 20 12 C18.08367895 11.22830784 16.16695363 10.45761943 14.25 9.6875 C3.46750553 5.2012583 3.46750553 5.2012583 0 0 Z " fill="#CBACBB" transform="translate(589,375)"/>
<path d="M0 0 C1.32 0.66 2.64 1.32 4 2 C3.60167969 2.44730469 3.20335937 2.89460937 2.79296875 3.35546875 C0.39171798 6.09558216 -1.80786945 8.67978242 -3.6875 11.8125 C-5 14 -5 14 -8 16 C-8.66 15.67 -9.32 15.34 -10 15 C-8.52501821 11.75355767 -6.66337381 9.15385708 -4.4375 6.375 C-1.9803419 3.33933997 -1.9803419 3.33933997 0 0 Z " fill="#E9B3C7" transform="translate(731,640)"/>
<path d="M0 0 C-3.21863554 3.21863554 -6.50283046 4.4234398 -11 5 C-11.99 4.67 -12.98 4.34 -14 4 C-15.39439664 3.93334624 -16.79169875 3.91461801 -18.1875 3.9375 C-19.445625 3.958125 -20.70375 3.97875 -22 4 C-18.47921315 1.98434953 -14.94911236 1.17009326 -11 0.3125 C-9.783125 0.04050781 -8.56625 -0.23148437 -7.3125 -0.51171875 C-4.35566123 -0.94757352 -2.74913631 -1.02405328 0 0 Z " fill="#E4E5E2" transform="translate(482,362)"/>
<path d="M0 0 C-0.33 1.65 -0.66 3.3 -1 5 C-9.57142857 4.14285714 -9.57142857 4.14285714 -13 2 C-8.3683343 -1.61848883 -5.49434694 -1.02436977 0 0 Z " fill="#59313F" transform="translate(365,682)"/>
<path d="M0 0 C0 0.66 0 1.32 0 2 C0.99 2 1.98 2 3 2 C3 2.66 3 3.32 3 4 C0.75256955 4.53181175 -1.49807102 5.05007126 -3.75 5.5625 C-5.62945313 5.99755859 -5.62945313 5.99755859 -7.546875 6.44140625 C-10.59473748 6.93444283 -12.17641828 7.07666879 -15 6 C-13.948125 5.566875 -12.89625 5.13375 -11.8125 4.6875 C-9.45854474 3.68885231 -7.44518527 2.65954551 -5.25 1.3125 C-3 0 -3 0 0 0 Z " fill="#D5B4C0" transform="translate(647,656)"/>
<path d="M0 0 C2 3 2 3 1.7578125 5.26171875 C1.54898438 6.06222656 1.34015625 6.86273437 1.125 7.6875 C0.92132812 8.49574219 0.71765625 9.30398438 0.5078125 10.13671875 C0.34023438 10.75160156 0.17265625 11.36648438 0 12 C-1.65 12.33 -3.3 12.66 -5 13 C-4.61271765 7.28758534 -4.12989477 4.26311718 0 0 Z " fill="#5B323E" transform="translate(742,608)"/>
<path d="M0 0 C2.475 0.99 2.475 0.99 5 2 C5 2.99 5 3.98 5 5 C5.66 5 6.32 5 7 5 C7 5.99 7 6.98 7 8 C7.66 8 8.32 8 9 8 C9.52973311 9.62212059 10.04853107 11.24781584 10.5625 12.875 C10.85253906 13.77992188 11.14257812 14.68484375 11.44140625 15.6171875 C12 18 12 18 11 20 C9.23881027 17.23241614 7.84713767 14.61784418 6.625 11.5625 C5.30175958 8.66154984 4.32700315 7.01410927 2.3125 4.6875 C0 2 0 2 0 0 Z " fill="#EDCAD9" transform="translate(660,451)"/>
<path d="M0 0 C0.94875 0.04125 1.8975 0.0825 2.875 0.125 C-1.75 5 -1.75 5 -5.125 6.125 C-5.455 7.115 -5.785 8.105 -6.125 9.125 C-7.115 9.455 -8.105 9.785 -9.125 10.125 C-9.455 9.135 -9.785 8.145 -10.125 7.125 C-9.465 7.125 -8.805 7.125 -8.125 7.125 C-8.125 6.135 -8.125 5.145 -8.125 4.125 C-7.465 4.125 -6.805 4.125 -6.125 4.125 C-5.795 3.465 -5.465 2.805 -5.125 2.125 C-3.125 0.125 -3.125 0.125 0 0 Z " fill="#EEB8C8" transform="translate(357.125,382.875)"/>
<path d="M0 0 C0.66 0.33 1.32 0.66 2 1 C2.37952295 7.19887485 1.8352113 11.4477112 -1 17 C-1.33 16.34 -1.66 15.68 -2 15 C-2.66 15 -3.32 15 -4 15 C-2.125 9.125 -2.125 9.125 -1 8 C-0.76924918 6.65252916 -0.58846937 5.29622435 -0.4375 3.9375 C-0.2209375 1.9884375 -0.2209375 1.9884375 0 0 Z " fill="#524243" transform="translate(437,527)"/>
<path d="M0 0 C5.70939788 -0.45675183 8.55127459 0.37894444 13 4 C13.99 5.485 13.99 5.485 15 7 C12.03 6.505 12.03 6.505 9 6 C9 5.34 9 4.68 9 4 C5.7 3.67 2.4 3.34 -1 3 C-0.67 2.01 -0.34 1.02 0 0 Z " fill="#4F3F44" transform="translate(482,532)"/>
<path d="M0 0 C0.66 0.33 1.32 0.66 2 1 C1.67 1.66 1.34 2.32 1 3 C0.34 3 -0.32 3 -1 3 C-0.67 4.32 -0.34 5.64 0 7 C-3.38598829 8.04184255 -6.46681687 8.23042499 -10 8 C-10.66 7.34 -11.32 6.68 -12 6 C-10.04669132 4.96958487 -8.08718472 3.9509107 -6.125 2.9375 C-5.03445313 2.36902344 -3.94390625 1.80054688 -2.8203125 1.21484375 C-1.42425781 0.61349609 -1.42425781 0.61349609 0 0 Z " fill="#603B44" transform="translate(686,646)"/>
<path d="M0 0 C0.33 0.66 0.66 1.32 1 2 C1.66 2 2.32 2 3 2 C3.33 1.34 3.66 0.68 4 0 C6 2 6 2 6.1953125 4.3828125 C6.17210937 5.28773438 6.14890625 6.19265625 6.125 7.125 C6.10695313 8.03507812 6.08890625 8.94515625 6.0703125 9.8828125 C6.04710937 10.58148438 6.02390625 11.28015625 6 12 C0.15384615 6.46153846 0.15384615 6.46153846 -1 3 C-0.67 2.01 -0.34 1.02 0 0 Z " fill="#57313E" transform="translate(673,433)"/>
<path d="M0 0 C0.99 0.33 1.98 0.66 3 1 C0.36 5.29 -2.28 9.58 -5 14 C-7 10 -7 10 -6.375 7.3125 C-5 5 -5 5 -2.875 4.1875 C-2.25625 4.125625 -1.6375 4.06375 -1 4 C-0.67 2.68 -0.34 1.36 0 0 Z " fill="#544042" transform="translate(332,451)"/>
<path d="M0 0 C2.5 2.3125 2.5 2.3125 5 5 C5 5.99 5 6.98 5 8 C4.01 7.67 3.02 7.34 2 7 C-0.00875442 7.27571139 -2.01178687 7.60235737 -4 8 C-4 6.02 -4 4.04 -4 2 C-2.68 2 -1.36 2 0 2 C0 1.34 0 0.68 0 0 Z " fill="#E9B1C4" transform="translate(661,424)"/>
<path d="M0 0 C0.99 0.66 1.98 1.32 3 2 C2.67 2.99 2.34 3.98 2 5 C1.01 4.67 0.02 4.34 -1 4 C-1.33 4.99 -1.66 5.98 -2 7 C-6.34285714 11 -6.34285714 11 -10 11 C-6.79239749 7.19364503 -3.59253891 3.45436433 0 0 Z " fill="#F2F6F1" transform="translate(365,416)"/>
<path d="M0 0 C-0.33 1.65 -0.66 3.3 -1 5 C-3.64 4.67 -6.28 4.34 -9 4 C-8.67 3.34 -8.34 2.68 -8 2 C-8.66 1.34 -9.32 0.68 -10 0 C-6.33694766 -0.74926071 -3.57644848 -1.2380014 0 0 Z " fill="#E6B1C9" transform="translate(652,689)"/>
<path d="M0 0 C0.66 0.33 1.32 0.66 2 1 C1.61479436 3.53910197 1.29902057 4.72751123 -0.62890625 6.484375 C-1.26699219 6.90203125 -1.90507812 7.3196875 -2.5625 7.75 C-3.20316406 8.17796875 -3.84382813 8.6059375 -4.50390625 9.046875 C-5.24447266 9.51867187 -5.24447266 9.51867187 -6 10 C-6.99 8.68 -7.98 7.36 -9 6 C-8.401875 5.896875 -7.80375 5.79375 -7.1875 5.6875 C-4.70138466 4.90614947 -3.77056558 3.85104584 -2 2 C-1.34 2 -0.68 2 0 2 C0 1.34 0 0.68 0 0 Z " fill="#543F41" transform="translate(376,402)"/>
<path d="M0 0 C3.3 0 6.6 0 10 0 C9.67 0.99 9.34 1.98 9 3 C9.78375 2.505 10.5675 2.01 11.375 1.5 C14 0 14 0 16 0 C16 0.66 16 1.32 16 2 C15.01 2 14.02 2 13 2 C13 2.66 13 3.32 13 4 C13.99 4.33 14.98 4.66 16 5 C14 6 14 6 10.7421875 5.00390625 C9.4502948 4.53110016 8.16131362 4.05028031 6.875 3.5625 C6.21628906 3.31951172 5.55757812 3.07652344 4.87890625 2.82617188 C3.25008662 2.22421679 1.62470425 1.61297588 0 1 C0 0.67 0 0.34 0 0 Z " fill="#D2A5B2" transform="translate(576,340)"/>
<path d="M0 0 C6.93 0 13.86 0 21 0 C21 0.33 21 0.66 21 1 C7.3667426 3.29612756 7.3667426 3.29612756 1 3 C0.67 2.01 0.34 1.02 0 0 Z " fill="#492630" transform="translate(500,331)"/>
<path d="M0 0 C1.2065625 0.0309375 1.2065625 0.0309375 2.4375 0.0625 C2.26124165 2.44198772 1.74030227 3.76475849 0.03515625 5.44140625 C-1.46899092 6.68365486 -3.01379851 7.87626056 -4.5625 9.0625 C-3.56521739 0.08695652 -3.56521739 0.08695652 0 0 Z " fill="#633743" transform="translate(718.5625,651.9375)"/>
<path d="M0 0 C0.66 0.33 1.32 0.66 2 1 C1.34 2.65 0.68 4.3 0 6 C-1.45635371 6.22174933 -2.91522956 6.42698698 -4.375 6.625 C-5.18710937 6.74101563 -5.99921875 6.85703125 -6.8359375 6.9765625 C-7.55007813 6.98429688 -8.26421875 6.99203125 -9 7 C-9.66 6.34 -10.32 5.68 -11 5 C-10.37351562 4.72285156 -9.74703125 4.44570313 -9.1015625 4.16015625 C-8.28429687 3.79792969 -7.46703125 3.43570313 -6.625 3.0625 C-5.81289063 2.70285156 -5.00078125 2.34320312 -4.1640625 1.97265625 C-2.76316215 1.3430097 -1.37374716 0.68687358 0 0 Z " fill="#E4E7E2" transform="translate(533,569)"/>
<path d="M0 0 C0 0.99 0 1.98 0 3 C-2.375 5.0625 -2.375 5.0625 -5 7 C-5.66 7.66 -6.32 8.32 -7 9 C-7.66 8.67 -8.32 8.34 -9 8 C-9 7.34 -9 6.68 -9 6 C-11.64 6 -14.28 6 -17 6 C-17 5.67 -17 5.34 -17 5 C-16.19175781 4.89042969 -15.38351562 4.78085937 -14.55078125 4.66796875 C-13.48214844 4.50941406 -12.41351562 4.35085938 -11.3125 4.1875 C-10.25675781 4.03667969 -9.20101562 3.88585937 -8.11328125 3.73046875 C-4.89806247 2.97608241 -2.71899677 1.84125013 0 0 Z " fill="#DEDAD8" transform="translate(619,549)"/>
<path d="M0 0 C1.70283518 1.70283518 1.71749945 3.6834955 2 6 C1.34 6.66 0.68 7.32 0 8 C-1.16964602 6.8572081 -2.33564556 5.71068285 -3.5 4.5625 C-4.1496875 3.92441406 -4.799375 3.28632813 -5.46875 2.62890625 C-7 1 -7 1 -7 0 C-2.25 -1.125 -2.25 -1.125 0 0 Z " fill="#5D3340" transform="translate(670,426)"/>
<path d="M0 0 C0.33 0.66 0.66 1.32 1 2 C3.02463255 2.65213292 3.02463255 2.65213292 5 3 C3.68 4.65 2.36 6.3 1 8 C-0.32 7.67 -1.64 7.34 -3 7 C-2.34 6.67 -1.68 6.34 -1 6 C-1 5.34 -1 4.68 -1 4 C-1.66 4 -2.32 4 -3 4 C-3 3.34 -3 2.68 -3 2 C-2.01 1.34 -1.02 0.68 0 0 Z " fill="#F3BACE" transform="translate(332,401)"/>
<path d="M0 0 C0 0.33 0 0.66 0 1 C-8.02332397 1.90041311 -15.92970447 2.11547323 -24 2 C-24 1.67 -24 1.34 -24 1 C-16.01969403 -1.82635836 -8.27527386 -0.7431678 0 0 Z " fill="#DDD5D8" transform="translate(584,668)"/>
<path d="M0 0 C0.66 0.99 1.32 1.98 2 3 C-1.44069624 5.29379749 -2.72290301 6 -7 6 C-7.33 6.99 -7.66 7.98 -8 9 C-8.66 8.34 -9.32 7.68 -10 7 C-8.70982586 6.01886757 -7.41780894 5.04015801 -6.125 4.0625 C-5.04605469 3.24458984 -5.04605469 3.24458984 -3.9453125 2.41015625 C-2 1 -2 1 0 0 Z " fill="#E7C5D7" transform="translate(660,646)"/>
<path d="M0 0 C0.66 0.99 1.32 1.98 2 3 C-1.33333333 6.33333333 -4.66666667 9.66666667 -8 13 C-8.66 12.67 -9.32 12.34 -10 12 C-8.52149287 10.18696196 -7.04217625 8.37458402 -5.5625 6.5625 C-4.32693359 5.04849609 -4.32693359 5.04849609 -3.06640625 3.50390625 C-1 1 -1 1 0 0 Z " fill="#6F424D" transform="translate(332,409)"/>
<path d="M0 0 C0 4.24170573 -1.83750763 6.75139708 -4.6875 9.8125 C-5.120625 10.204375 -5.55375 10.59625 -6 11 C-7.32 10.01 -8.64 9.02 -10 8 C-6.7 5.36 -3.4 2.72 0 0 Z " fill="#EDEDE9" transform="translate(378,405)"/>
<path d="M0 0 C-1.609375 2.015625 -1.609375 2.015625 -4 4 C-7.015625 4.171875 -7.015625 4.171875 -10.25 3.75 C-11.32765625 3.62109375 -12.4053125 3.4921875 -13.515625 3.359375 C-14.74539063 3.18148438 -14.74539063 3.18148438 -16 3 C-16 2.67 -16 2.34 -16 2 C-10.61972975 0.80911014 -5.54708616 -0.2919519 0 0 Z " fill="#DEAFBC" transform="translate(554,330)"/>
<path d="M0 0 C0.99 0 1.98 0 3 0 C4.15941038 3.47823115 3.70820884 5.45895578 3 9 C1.68 8.67 0.36 8.34 -1 8 C-1.125 2.25 -1.125 2.25 0 0 Z " fill="#5C3641" transform="translate(275,528)"/>
<path d="M0 0 C0.33 0 0.66 0 1 0 C1.24900646 1.93505023 1.47356242 3.87325934 1.6875 5.8125 C1.81511719 6.89144531 1.94273437 7.97039063 2.07421875 9.08203125 C2 12 2 12 0.64453125 13.69921875 C0.10183594 14.12847656 -0.44085937 14.55773437 -1 15 C-1.66 15.99 -2.32 16.98 -3 18 C-2.19500136 11.96251023 -1.11517502 5.98729887 0 0 Z " fill="#D9A6B8" transform="translate(746,597)"/>
<path d="M0 0 C2.125 0.9375 2.125 0.9375 4 2 C3.34 4.64 2.68 7.28 2 10 C1.01 9.34 0.02 8.68 -1 8 C-1.6875 4.375 -1.6875 4.375 -2 1 C-1.34 0.67 -0.68 0.34 0 0 Z " fill="#F1BBCB" transform="translate(284,480)"/>
<path d="M0 0 C2.71631546 0.90543849 5.34771188 1.92474806 8 3 C5.23776722 5.76223278 2.79293383 5.57856291 -1 6 C-1.625 4.125 -1.625 4.125 -2 2 C-1.34 1.34 -0.68 0.68 0 0 Z " fill="#E8BAC6" transform="translate(434,338)"/>
<path d="M0 0 C2 2 2 2 2.1953125 3.9453125 C2.13020833 5.96354167 2.06510417 7.98177083 2 10 C2.66 10 3.32 10 4 10 C4.33 9.01 4.66 8.02 5 7 C4.50639991 11.27786748 3.95216435 14.09567131 2 18 C1.34 12.06 0.68 6.12 0 0 Z " fill="#DAA6B8" transform="translate(745,534)"/>
<path d="M0 0 C0.25 2.3125 0.25 2.3125 0 5 C-1.8125 6.8125 -1.8125 6.8125 -4 8 C-4.99 8 -5.98 8 -7 8 C-4.18918919 0 -4.18918919 0 0 0 Z " fill="#4F3C40" transform="translate(592,515)"/>
<path d="M0 0 C0.763125 0.309375 1.52625 0.61875 2.3125 0.9375 C4.18789677 1.67893593 6.08684652 2.36228217 8 3 C8 3.99 8 4.98 8 6 C8.99 6.33 9.98 6.66 11 7 C11.6875 9.0625 11.6875 9.0625 12 11 C8.16735822 9.4943193 6.462238 7.23168738 4 4 C2.68505488 2.64852862 1.35735142 1.30887458 0 0 Z " fill="#EAC9D9" transform="translate(616,397)"/>
<path d="M0 0 C0.66 0 1.32 0 2 0 C2.99 2.64 3.98 5.28 5 8 C4.01 8 3.02 8 2 8 C1.67 9.32 1.34 10.64 1 12 C0.67 8.04 0.34 4.08 0 0 Z " fill="#523A42" transform="translate(305,616)"/>
<path d="M0 0 C1.32 0.66 2.64 1.32 4 2 C-0.67460782 6.55774263 -3.48277089 7.66290194 -10 8 C-7 6 -7 6 -4 6 C-4 5.34 -4 4.68 -4 4 C-2.70766393 2.62689293 -1.37562854 1.28965176 0 0 Z " fill="#F8EEF3" transform="translate(428,586)"/>
<path d="M0 0 C1.0326802 2.78823655 1.04509293 3.8677274 0.0625 6.75 C-0.288125 7.4925 -0.63875 8.235 -1 9 C-2.65 8.67 -4.3 8.34 -6 8 C-2.25 2.25 -2.25 2.25 0 0 Z " fill="#ECEAE7" transform="translate(351,430)"/>
<path d="M0 0 C1.65 0 3.3 0 5 0 C4.07347299 1.17539996 3.13336613 2.34010577 2.1875 3.5 C1.66542969 4.1496875 1.14335937 4.799375 0.60546875 5.46875 C-1 7 -1 7 -4 7 C-4.33 6.01 -4.66 5.02 -5 4 C-4.34 4 -3.68 4 -3 4 C-2.67 3.34 -2.34 2.68 -2 2 C-1.34 1.67 -0.68 1.34 0 1 C0 0.67 0 0.34 0 0 Z " fill="#614E4E" transform="translate(358,418)"/>
<path d="M0 0 C0 0.33 0 0.66 0 1 C-1.56116819 1.33951619 -3.12401338 1.67132544 -4.6875 2 C-5.99267578 2.2784375 -5.99267578 2.2784375 -7.32421875 2.5625 C-9.93712964 2.98972047 -12.35813038 3.07616201 -15 3 C-15.33 2.34 -15.66 1.68 -16 1 C-14.27327966 0.63409254 -12.54346345 0.28277805 -10.8125 -0.0625 C-9.36810547 -0.35833984 -9.36810547 -0.35833984 -7.89453125 -0.66015625 C-4.96389138 -1.00423947 -2.83692932 -0.74164697 0 0 Z " fill="#E7BCC7" transform="translate(480,332)"/>
<path d="M0 0 C2.11044382 3.16566573 2.75552077 5.51197415 3.625 9.1875 C3.88539063 10.27417969 4.14578125 11.36085938 4.4140625 12.48046875 C4.60742188 13.31191406 4.80078125 14.14335938 5 15 C3.046875 14.16796875 3.046875 14.16796875 1 13 C-0.19974793 8.70090324 -0.08881153 4.44057626 0 0 Z " fill="#D5A4B5" transform="translate(274,608)"/>
<path d="M0 0 C2.31 0.66 4.62 1.32 7 2 C6.01 2.33 5.02 2.66 4 3 C3.67 3.99 3.34 4.98 3 6 C0.9375 6.6875 0.9375 6.6875 -1 7 C-1 6.34 -1 5.68 -1 5 C-1.66 4.34 -2.32 3.68 -3 3 C-2.01 2.01 -1.02 1.02 0 0 Z " fill="#F3F4F3" transform="translate(595,552)"/>
<path d="M0 0 C-0.804375 0.28875 -1.60875 0.5775 -2.4375 0.875 C-5.1326468 1.73262568 -5.1326468 1.73262568 -6 4 C-8.875 4.125 -8.875 4.125 -12 4 C-12.66 3.34 -13.32 2.68 -14 2 C-12.42085985 1.46658816 -10.83645613 0.94874237 -9.25 0.4375 C-8.36828125 0.14746094 -7.4865625 -0.14257812 -6.578125 -0.44140625 C-3.92165684 -1.01697435 -2.52968894 -0.89248371 0 0 Z " fill="#DFE3E0" transform="translate(457,368)"/>
<path d="M0 0 C-0.639375 0.268125 -1.27875 0.53625 -1.9375 0.8125 C-4.33131686 1.88667752 -4.33131686 1.88667752 -5 5 C-6.8125 5.875 -6.8125 5.875 -9 6 C-10.36644193 5.04573891 -11.70440215 4.04842929 -13 3 C-11.21189234 2.30329584 -9.41937948 1.61788811 -7.625 0.9375 C-6.62726563 0.55464844 -5.62953125 0.17179687 -4.6015625 -0.22265625 C-2 -1 -2 -1 0 0 Z " fill="#633F48" transform="translate(437,344)"/>
<path d="M0 0 C3 1 3 1 3 1 Z M-3 1 C2.75 1.75 2.75 1.75 5 4 C2.03 4.66 -0.94 5.32 -4 6 C-3.67 4.35 -3.34 2.7 -3 1 Z " fill="#E4B3C1" transform="translate(667,650)"/>
<path d="M0 0 C0.33 0 0.66 0 1 0 C1 1.98 1 3.96 1 6 C1.99 5.67 2.98 5.34 4 5 C4.12375 5.78375 4.2475 6.5675 4.375 7.375 C4.79117993 10.14057822 4.79117993 10.14057822 7 12 C4.41851492 11.64393309 3.17954253 11.16671807 1.25 9.375 C-0.43754802 6.16865877 -0.20576047 3.56651486 0 0 Z " fill="#E8B7CE" transform="translate(361,580)"/>
<path d="M0 0 C4.82382465 0.26799026 6.86565605 2.50744532 10 6 C9.67 6.66 9.34 7.32 9 8 C4.2 5.53846154 4.2 5.53846154 3.1875 2.8125 C3.0946875 1.9153125 3.0946875 1.9153125 3 1 C2.01 2.485 2.01 2.485 1 4 C0.34 3.01 -0.32 2.02 -1 1 C-0.67 0.67 -0.34 0.34 0 0 Z " fill="#4D262F" transform="translate(667,394)"/>
<path d="M0 0 C2.3828125 -0.29296875 2.3828125 -0.29296875 5.125 -0.1875 C6.03507812 -0.16042969 6.94515625 -0.13335937 7.8828125 -0.10546875 C8.58148438 -0.07066406 9.28015625 -0.03585937 10 0 C7.48300155 2.51699845 5.42445854 3.10964078 2 4 C-0.375 3.625 -0.375 3.625 -2 3 C-1.34 2.01 -0.68 1.02 0 0 Z " fill="#554544" transform="translate(426,373)"/>
<path d="M0 0 C0.66 0.66 1.32 1.32 2 2 C1.34 2 0.68 2 0 2 C0 2.66 0 3.32 0 4 C1.32 4.66 2.64 5.32 4 6 C3.67 6.99 3.34 7.98 3 9 C-1.875 5.375 -1.875 5.375 -3 2 C-2.01 1.34 -1.02 0.68 0 0 Z " fill="#F2EFEE" transform="translate(500,536)"/>
<path d="M0 0 C2.0625 2.0625 2.0625 2.0625 4 5 C3.75 8.8125 3.75 8.8125 3 12 C1 9 1 9 1 5 C0.34 5 -0.32 5 -1 5 C-0.67 3.35 -0.34 1.7 0 0 Z " fill="#533B43" transform="translate(395,522)"/>
<path d="M0 0 C0.66 0 1.32 0 2 0 C3.29243536 4.1196377 4.26252625 7.66831683 4 12 C2 11 2 11 0.875 8.25 C0.08026605 5.29813104 -0.17810598 3.02780163 0 0 Z " fill="#E8C1D2" transform="translate(690,512)"/>
<path d="M0 0 C0.66 0.33 1.32 0.66 2 1 C2 1.66 2 2.32 2 3 C1.34 3 0.68 3 0 3 C-0.33 4.65 -0.66 6.3 -1 8 C-1.66 8 -2.32 8 -3 8 C-3.33 8.66 -3.66 9.32 -4 10 C-4.33 9.01 -4.66 8.02 -5 7 C-4.00390625 5.17578125 -4.00390625 5.17578125 -2.5625 3.3125 C-2.08941406 2.68988281 -1.61632812 2.06726563 -1.12890625 1.42578125 C-0.75636719 0.95527344 -0.38382812 0.48476563 0 0 Z " fill="#5F3741" transform="translate(315,431)"/>
<path d="M0 0 C0.99 0.99 1.98 1.98 3 3 C1.25 6.875 1.25 6.875 -1 8 C-1.66 7.34 -2.32 6.68 -3 6 C-2.34 6 -1.68 6 -1 6 C-1 5.34 -1 4.68 -1 4 C-1.66 4 -2.32 4 -3 4 C-2 2 -2 2 0 0 Z " fill="#593F42" transform="translate(352,422)"/>
<path d="M0 0 C3.53372712 1.96318174 6.24479785 4.04070881 9 7 C4.32165993 7 3.2690159 6.1782099 0 3 C0 2.01 0 1.02 0 0 Z " fill="#E0AEC2" transform="translate(633,400)"/>
<path d="M0 0 C3.37503669 1.1858237 5.64722731 2.27573689 8 5 C5 6 5 6 3.17578125 5.22265625 C1.45052083 4.1484375 -0.27473958 3.07421875 -2 2 C-1.34 1.34 -0.68 0.68 0 0 Z " fill="#5E3647" transform="translate(616,386)"/>
<path d="M0 0 C0.66 0.33 1.32 0.66 2 1 C1 2 0 3 -1 4 C-1.845625 4.86625 -2.69125 5.7325 -3.5625 6.625 C-6 9 -6 9 -8 10 C-8.33 9.01 -8.66 8.02 -9 7 C-6.03 4.69 -3.06 2.38 0 0 Z " fill="#DBAABC" transform="translate(713,661)"/>
<path d="M0 0 C1.90318884 2.85478326 2.4619099 4.41941308 3.125 7.6875 C3.29257812 8.49574219 3.46015625 9.30398438 3.6328125 10.13671875 C3.75398437 10.75160156 3.87515625 11.36648438 4 12 C3.34 12 2.68 12 2 12 C-0.13586678 8.79619983 -0.23132175 7.98060033 -0.125 4.3125 C-0.10695313 3.50425781 -0.08890625 2.69601562 -0.0703125 1.86328125 C-0.04710937 1.24839844 -0.02390625 0.63351562 0 0 Z " fill="#5D3245" transform="translate(736,499)"/>
<path d="M0 0 C2 4 2 4 1.875 6.125 C1 8 1 8 -3 10 C-2.01 6.7 -1.02 3.4 0 0 Z " fill="#EBEAE7" transform="translate(316,485)"/>
<path d="M0 0 C0.66 1.32 1.32 2.64 2 4 C-1.75 7 -1.75 7 -4 7 C-4.33 5.68 -4.66 4.36 -5 3 C-4.01 3.33 -3.02 3.66 -2 4 C-1.34 2.68 -0.68 1.36 0 0 Z " fill="#F1BBCE" transform="translate(326,411)"/>
<path d="M0 0 C2.61527381 2.36620011 4.26440562 4.942048 6 8 C5.01 8.495 5.01 8.495 4 9 C1.875 8.0625 1.875 8.0625 0 7 C0 4.69 0 2.38 0 0 Z " fill="#DFB2C1" transform="translate(293,648)"/>
<path d="M0 0 C0.99 0.33 1.98 0.66 3 1 C2.34 1 1.68 1 1 1 C1 1.66 1 2.32 1 3 C1.99 3.33 2.98 3.66 4 4 C2.35 5.32 0.7 6.64 -1 8 C-1 4.88742431 -0.82638376 2.89234315 0 0 Z " fill="#EBB3C3" transform="translate(700,628)"/>
<path d="M0 0 C1.32 0.66 2.64 1.32 4 2 C2.68 3.32 1.36 4.64 0 6 C-0.99 5.34 -1.98 4.68 -3 4 C-2.01 2.68 -1.02 1.36 0 0 Z " fill="#563E42" transform="translate(533,564)"/>
<path d="M0 0 C1.98 0.66 3.96 1.32 6 2 C5.34 3.32 4.68 4.64 4 6 C2.02 4.68 0.04 3.36 -2 2 C-1.34 1.34 -0.68 0.68 0 0 Z " fill="#613946" transform="translate(629,394)"/>
<path d="M0 0 C3 1 3 1 4 3 C-1.75 6 -1.75 6 -4 6 C-4.33 5.01 -4.66 4.02 -5 3 C-4.360625 2.87625 -3.72125 2.7525 -3.0625 2.625 C-2.0415625 2.315625 -2.0415625 2.315625 -1 2 C-0.67 1.34 -0.34 0.68 0 0 Z " fill="#E6B4C1" transform="translate(402,353)"/>
<path d="M0 0 C0.66 0.99 1.32 1.98 2 3 C-2.455 5.97 -2.455 5.97 -7 9 C-7.66 8.67 -8.32 8.34 -9 8 C-6.03 5.36 -3.06 2.72 0 0 Z " fill="#6B4249" transform="translate(700,635)"/>
<path d="M0 0 C0 0.33 0 0.66 0 1 C-5.445 1.495 -5.445 1.495 -11 2 C-11.33 2.99 -11.66 3.98 -12 5 C-13.32 4.34 -14.64 3.68 -16 3 C-10.4477112 0.1647887 -6.19887485 -0.37952295 0 0 Z " fill="#75686B" transform="translate(420,509)"/>
<path d="M0 0 C0.66 0.66 1.32 1.32 2 2 C0.515 4.475 0.515 4.475 -1 7 C-2.32 6.34 -3.64 5.68 -5 5 C-3.35 3.35 -1.7 1.7 0 0 Z " fill="#F1F8F4" transform="translate(336,452)"/>
<path d="M0 0 C1.98 1.65 3.96 3.3 6 5 C5.34 5.66 4.68 6.32 4 7 C1.375 6.625 1.375 6.625 -1 6 C-0.67 4.02 -0.34 2.04 0 0 Z " fill="#E0ACC1" transform="translate(644,408)"/>
<path d="M0 0 C1.32 0.33 2.64 0.66 4 1 C4 1.66 4 2.32 4 3 C5.65 3.33 7.3 3.66 9 4 C9 4.99 9 5.98 9 7 C8.34 6.67 7.68 6.34 7 6 C4.66875071 4.99515117 2.33556463 3.99477753 0 3 C0 2.01 0 1.02 0 0 Z " fill="#C495AA" transform="translate(602,381)"/>
<path d="M0 0 C1.31571603 0.2547514 2.62760376 0.52934141 3.9375 0.8125 C4.66839844 0.96332031 5.39929688 1.11414063 6.15234375 1.26953125 C6.76207031 1.51058594 7.37179687 1.75164062 8 2 C8.33 2.99 8.66 3.98 9 5 C8.34 5.66 7.68 6.32 7 7 C5.83040013 6.02433888 4.66438823 5.044375 3.5 4.0625 C2.8503125 3.51722656 2.200625 2.97195313 1.53125 2.41015625 C1.0259375 1.94480469 0.520625 1.47945313 0 1 C0 0.67 0 0.34 0 0 Z " fill="#E8BBD3" transform="translate(602,384)"/>
<path d="M0 0 C-2.68841859 2.25245881 -4.64641875 3.88213958 -8 5 C-8 3.35 -8 1.7 -8 0 C-4.71303767 -0.79953138 -3.28976808 -1.09658936 0 0 Z " fill="#E9BBC9" transform="translate(392,362)"/>
<path d="M0 0 C3 1 3 1 5 3 C2.36 3.66 -0.28 4.32 -3 5 C-3 4.01 -3 3.02 -3 2 C-2.01 1.34 -1.02 0.68 0 0 Z " fill="#F1EFEF" transform="translate(532,529)"/>
<path d="M0 0 C1.32 1.32 2.64 2.64 4 4 C3.34 4.66 2.68 5.32 2 6 C1.01 6 0.02 6 -1 6 C-1.66 4.35 -2.32 2.7 -3 1 C-2.01 1.33 -1.02 1.66 0 2 C0 1.34 0 0.68 0 0 Z " fill="#5A323B" transform="translate(684,408)"/>
<path d="M0 0 C0.99 0.33 1.98 0.66 3 1 C2.67 2.32 2.34 3.64 2 5 C1.01 4.67 0.02 4.34 -1 4 C-1.33 4.66 -1.66 5.32 -2 6 C-2 5.34 -2 4.68 -2 4 C-2.66 3.67 -3.32 3.34 -4 3 C-2.1875 1.4375 -2.1875 1.4375 0 0 Z " fill="#EBECE5" transform="translate(390,396)"/>
<path d="M0 0 C0.33 0.99 0.66 1.98 1 3 C1.66 3 2.32 3 3 3 C2.67 3.99 2.34 4.98 2 6 C1.67 5.67 1.34 5.34 1 5 C0.01 5.99 -0.98 6.98 -2 8 C-2 5.69 -2 3.38 -2 1 C-1.34 0.67 -0.68 0.34 0 0 Z " fill="#4A2632" transform="translate(276,597)"/>
<path d="M0 0 C1.5625 1.8125 1.5625 1.8125 3 4 C2.67 4.99 2.34 5.98 2 7 C2 6.34 2 5.68 2 5 C1.34 5 0.68 5 0 5 C-0.33 5.99 -0.66 6.98 -1 8 C-1.66 8 -2.32 8 -3 8 C-2.690625 7.236875 -2.38125 6.47375 -2.0625 5.6875 C-1.32106407 3.81210323 -0.63771783 1.91315348 0 0 Z " fill="#EBEDEA" transform="translate(547,552)"/>
<path d="M0 0 C3 1 3 1 4 3 C4.04022391 5.3329866 4.04320247 7.66706666 4 10 C3.67 10 3.34 10 3 10 C2.67 8.35 2.34 6.7 2 5 C1.01 4.67 0.02 4.34 -1 4 C-0.67 2.68 -0.34 1.36 0 0 Z " fill="#5F4E53" transform="translate(545,539)"/>
<path d="M0 0 C0.66 0 1.32 0 2 0 C1.25 2.9375 1.25 2.9375 0 6 C-2.125 6.875 -2.125 6.875 -4 7 C-2.92598892 4.08482708 -2.22189824 2.22189824 0 0 Z " fill="#5A4B4E" transform="translate(400,515)"/>
<path d="M0 0 C2 4 2 4 2 6 C1.34 6 0.68 6 0 6 C-0.33 6.99 -0.66 7.98 -1 9 C-1.66 9 -2.32 9 -3 9 C-2.01 6.03 -1.02 3.06 0 0 Z " fill="#6E444E" transform="translate(292,471)"/>
<path d="M0 0 C3.465 1.98 3.465 1.98 7 4 C7 5.32 7 6.64 7 8 C6.34 8 5.68 8 5 8 C0 2.52380952 0 2.52380952 0 0 Z " fill="#EAC7D8" transform="translate(628,408)"/>
<path d="M0 0 C1.32 0.66 2.64 1.32 4 2 C2.71475739 2.86380259 1.42157581 3.71580369 0.125 4.5625 C-0.59429687 5.03816406 -1.31359375 5.51382812 -2.0546875 6.00390625 C-2.69664062 6.33261719 -3.33859375 6.66132813 -4 7 C-4.66 6.67 -5.32 6.34 -6 6 C-5.195625 5.38125 -4.39125 4.7625 -3.5625 4.125 C-0.96125481 2.25835959 -0.96125481 2.25835959 0 0 Z " fill="#693F48" transform="translate(352,389)"/>
<path d="M0 0 C3.23356015 1.21258505 4.00856305 2.01284458 6 5 C5.01 5.33 4.02 5.66 3 6 C1.35 4.35 -0.3 2.7 -2 1 C-1.34 0.67 -0.68 0.34 0 0 Z " fill="#EBBCCB" transform="translate(663,384)"/>
<path d="M0 0 C4.05606165 0.46800711 7.46588679 0.87953208 11 3 C10.34 3 9.68 3 9 3 C9 3.66 9 4.32 9 5 C8.01 5 7.02 5 6 5 C6 4.01 6 3.02 6 2 C3.03 1.505 3.03 1.505 0 1 C0 0.67 0 0.34 0 0 Z " fill="#D8D6D4" transform="translate(541,361)"/>
<path d="M0 0 C0.99 0.33 1.98 0.66 3 1 C3 1.66 3 2.32 3 3 C1.68 2.67 0.36 2.34 -1 2 C-1.33 2.99 -1.66 3.98 -2 5 C-3.65 5 -5.3 5 -7 5 C-2.25 1.125 -2.25 1.125 0 0 Z " fill="#68424B" transform="translate(397,359)"/>
<path d="M0 0 C2.625 -0.1875 2.625 -0.1875 5 0 C4.1875 2.4375 4.1875 2.4375 3 5 C2.01 5.33 1.02 5.66 0 6 C-0.66 5.01 -1.32 4.02 -2 3 C-1.34 2.01 -0.68 1.02 0 0 Z " fill="#E8B4C5" transform="translate(682,643)"/>
<path d="M0 0 C0.66 0.33 1.32 0.66 2 1 C2 2.65 2 4.3 2 6 C0.35 6.66 -1.3 7.32 -3 8 C-1.125 1.125 -1.125 1.125 0 0 Z " fill="#DBA8B9" transform="translate(741,620)"/>
<path d="M0 0 C0.99 0.33 1.98 0.66 3 1 C2.67 1.99 2.34 2.98 2 4 C-0.31 3.67 -2.62 3.34 -5 3 C-2 1 -2 1 0 0 Z " fill="#E8E8E2" transform="translate(427,551)"/>
<path d="M0 0 C2.88437779 1.29299694 4.87219421 2.65941363 7 5 C6.67 5.66 6.34 6.32 6 7 C5.01 7 4.02 7 3 7 C3 6.01 3 5.02 3 4 C2.34 4 1.68 4 1 4 C0.67 2.68 0.34 1.36 0 0 Z " fill="#58474D" transform="translate(428,513)"/>
<path d="M0 0 C0.99 0.99 1.98 1.98 3 3 C1.35 4.32 -0.3 5.64 -2 7 C-2.33 6.01 -2.66 5.02 -3 4 C-2.67 3.34 -2.34 2.68 -2 2 C-1.34 2 -0.68 2 0 2 C0 1.34 0 0.68 0 0 Z " fill="#EAB3C4" transform="translate(339,397)"/>
<path d="M0 0 C2.46800047 1.15173355 4.04783565 2.04783565 6 4 C2.25 5.125 2.25 5.125 0 4 C0 2.68 0 1.36 0 0 Z " fill="#E5B6C6" transform="translate(310,666)"/>
<path d="M0 0 C0.33 0.66 0.66 1.32 1 2 C1.99 1.67 2.98 1.34 4 1 C3.67 2.65 3.34 4.3 3 6 C2.01 6 1.02 6 0 6 C-1.125 2.25 -1.125 2.25 0 0 Z " fill="#5B323B" transform="translate(708,658)"/>
<path d="M0 0 C0 3 0 3 -1 6 C-2.98 6.33 -4.96 6.66 -7 7 C-6.67 6.34 -6.34 5.68 -6 5 C-5.34 5 -4.68 5 -4 5 C-4 4.34 -4 3.68 -4 3 C-2 1.375 -2 1.375 0 0 Z " fill="#E8C9D5" transform="translate(668,639)"/>
<path d="M0 0 C0.99 0 1.98 0 3 0 C2.34 1.65 1.68 3.3 1 5 C0.01 5 -0.98 5 -2 5 C-1.125 1.125 -1.125 1.125 0 0 Z " fill="#EDB8CC" transform="translate(739,627)"/>
<path d="M0 0 C0.99 0.33 1.98 0.66 3 1 C3.8125 2.9375 3.8125 2.9375 4 5 C3.34 5.66 2.68 6.32 2 7 C1.34 6.67 0.68 6.34 0 6 C0 4.02 0 2.04 0 0 Z " fill="#4F3840" transform="translate(433,519)"/>
<path d="M0 0 C0.66 0.99 1.32 1.98 2 3 C1.67 3.99 1.34 4.98 1 6 C-1.5625 7.1875 -1.5625 7.1875 -4 8 C-2.68 5.36 -1.36 2.72 0 0 Z " fill="#ECEBE9" transform="translate(330,458)"/>
<path d="M0 0 C0.99 0.33 1.98 0.66 3 1 C3 3.31 3 5.62 3 8 C0.52557871 5.84832931 -0.56238367 4.28212246 -1 1 C-0.67 0.67 -0.34 0.34 0 0 Z " fill="#E5B6C9" transform="translate(716,448)"/>
<path d="M0 0 C0.99 1.32 1.98 2.64 3 4 C2.67 4.66 2.34 5.32 2 6 C0.35 5.67 -1.3 5.34 -3 5 C-2.01 3.35 -1.02 1.7 0 0 Z " fill="#E6B0C3" transform="translate(676,442)"/>
<path d="M0 0 C2.31 0.33 4.62 0.66 7 1 C6.67 1.99 6.34 2.98 6 4 C4.02 3.34 2.04 2.68 0 2 C0 1.34 0 0.68 0 0 Z " fill="#E9BBC6" transform="translate(616,355)"/>
<path d="M0 0 C2.31 0.33 4.62 0.66 7 1 C5.68 1.33 4.36 1.66 3 2 C3 2.66 3 3.32 3 4 C1.68 3.67 0.36 3.34 -1 3 C-0.67 2.01 -0.34 1.02 0 0 Z " fill="#E3B1C2" transform="translate(345,683)"/>
<path d="M0 0 C2.15377564 2.62198774 3.40072174 4.64404172 4 8 C3.01 8.495 3.01 8.495 2 9 C0.4375 6.1875 0.4375 6.1875 -1 3 C-0.67 2.01 -0.34 1.02 0 0 Z " fill="#623745" transform="translate(718,456)"/>
<path d="M0 0 C0.99 0.33 1.98 0.66 3 1 C1.35 2.65 -0.3 4.3 -2 6 C-2 4.35 -2 2.7 -2 1 C-1.34 0.67 -0.68 0.34 0 0 Z " fill="#5B4245" transform="translate(365,412)"/>
<path d="M0 0 C0 0.66 0 1.32 0 2 C-0.99 2 -1.98 2 -3 2 C-3 2.66 -3 3.32 -3 4 C-2.01 4.33 -1.02 4.66 0 5 C-0.99 5.495 -0.99 5.495 -2 6 C-4.125 5.0625 -4.125 5.0625 -6 4 C-2.25 0 -2.25 0 0 0 Z " fill="#E0B2BE" transform="translate(592,340)"/>
</svg>
